<?xml version="1.0" encoding="utf-8"?>
<!-- Generator: Adobe Illustrator 18.1.1, SVG Export Plug-In . SVG Version: 6.00 Build 0)  -->
<svg version="1.1" id="Layer_1" xmlns="http://www.w3.org/2000/svg" xmlns:xlink="http://www.w3.org/1999/xlink" x="0px" y="0px"
	 viewBox="-133 355.8 58 85.5" enable-background="new -133 355.8 58 85.5" xml:space="preserve">
<g transform="translate(0.000000,113.000000) scale(0.100000,-0.100000)">
	<path fill="#4991E1" d="M-1260-3023c8-17,13-35,12-39c-1-5,1-8,6-8c4,0,13-13,20-29c20-45,76-101,100-101c25,0,29,15,6,24
		c-8,3-12,10-9,16c5,9-15,15-37,11c-5,0-8,5-8,13c0,7-11,21-24,30c-47,30-88,246-66,345c16,74,31,112,40,106c4-3,13,2,19,9
		c7,8,31,18,54,21c23,4,47,11,53,16c8,6,17,4,27-5c8-8,17-12,21-9c8,9,8,23-1,21c-5,0-16,2-26,7c-10,4-23,2-30-4c-10-7-17-7-24,0
		c-13,13-36,2-28-12c8-11,5-11-32,1c-20,8-38,8-57,0l-27-10l26,34c15,19,32,37,38,40c8,3,8,8-3,15c-20,14,4,15,30,1c11-6,21-6,24-1
		s-6,12-19,15c-23,6-24,8-11,21c17,17,36,20,36,5c0-11,42-31,49-24c2,2-7,12-20,23s-21,23-17,27s14,1,23-6s35-14,59-15
		c26-1,51-8,61-18c21-22,52-24,33-3c-7,8-16,12-20,9c-5-2-8,1-8,6c0,6-8,11-17,12c-10,0-13,3-7,5c15,6,106-30,135-53
		c65-52,71-61,54-86c-8-14-13-30-10-38s7-27,9-44c2-16,9-49,15-73c7-24,10-51,7-60s-6-44-7-77s-5-67-9-75s-10-33-12-56
		c-3-23-8-46-12-52c-3-6-2-14,4-17c6-4,10-3,8,2c-1,4,6,33,15,64c9,30,19,89,22,130s11,101,18,135c7,33,10,73,6,88s-6,33-3,40
		s-2,18-10,25s-12,19-9,27c6,17-23,64-40,64c-8,0-24,11-37,25c-33,35-88,52-195,60c-48,4-68,0-102-18c-24-12-43-28-43-35s-4-10-10-7
		c-5,3-10-1-10-9s-10-22-22-30s-22-23-23-33s-6-27-11-38c-16-37-2-246,22-336 M-1216-2625c-4-8-16-15-27-15c-20,0-20,0-1,15
		C-1219-2606-1209-2606-1216-2625z M-811-2646c3,2,11-7,18-20c6-14,7-26,2-30c-5-3-9,2-9,11c0,10-5,13-12,9c-6-4-8-3-4,4
		c3,6,2,13-4,17c-5,3-10,12-9,18c0,9,2,8,6-1C-821-2644-815-2648-811-2646z"/>
	<path fill="#4991E1" d="M-1077-2537c9-14,47-24,47-12c0,5-4,9-9,9s-17,3-27,7C-1077-2529-1081-2530-1077-2537z"/>
	<path fill="#4991E1" d="M-1142-2557c7-3,16-2,19,1c4,3-2,6-13,5C-1147-2551-1150-2554-1142-2557z"/>
	<path fill="#4991E1" d="M-1105-2560c3-5,13-10,21-10s12,5,9,10c-3,6-13,10-21,10S-1108-2554-1105-2560z"/>
	<path fill="#4991E1" d="M-1005-2560c-3-6,1-7,9-4c18,7,21,14,7,14C-995-2550-1002-2554-1005-2560z"/>
	<path fill="#4991E1" d="M-984-2619c-3-4,6-8,20-9c13-1,24,0,24,2C-940-2619-980-2612-984-2619z"/>
	<path fill="#4991E1" d="M-1010-2674c0-2,7-7,16-10c8-3,12-2,9,4C-991-2670-1010-2666-1010-2674z"/>
	<path fill="#4991E1" d="M-1223-2776c-17-17-4-24,46-24c29,0,61-6,70-12c15-11,8-13-40-13c-32,0-64,4-71,9c-17,10-26,1-19-19
		c4-8,16-15,27-15s20-7,20-15c0-13,6-17,26-14c4,0,10-5,15-12c6-10,16-7,43,12c46,31,50,74,9,90C-1133-2775-1213-2767-1223-2776z
		 M-1110-2839c0-17-30-32-50-26c-27,9-26,25,2,17c12-3,19-1,15,4c-3,6,3,11,14,11C-1119-2832-1110-2835-1110-2839z"/>
	<path fill="#4991E1" d="M-965-2785c-22-8-41-15-41-15c-6,0-8-80-2-80c5,0,8,7,8,16c0,14,3,14,15,4c21-18,29-6,14,19
		c-17,26-10,32,53,42c42,7,55,5,70-8c18-16,18-16,10,8c-7,19-17,24-48,26C-907-2771-943-2777-965-2785z"/>
	<path fill="#4991E1" d="M-949-2832c-1-19,24-25,34-8c5,8,11,8,20,0c8-6,21-7,36-2c20,8,18,10-21,16c-29,4-46,3-50-5c-6-8-9-7-13,2
		C-947-2819-949-2820-949-2832z"/>
	<path fill="#4991E1" d="M-1113-2932c-28-33-35-58-17-58c6,0,10,5,10,11s9,24,21,41C-1070-2898-1081-2893-1113-2932z"/>
	<path fill="#4991E1" d="M-1010-2927c0-16,3-38,6-51c5-18,9-20,20-11c18,15,18,29-1,29s-20,29,0,36c18,7,10,24-11,24
		C-1005-2900-1010-2910-1010-2927z"/>
	<path fill="#4991E1" d="M-795-2955"/>
	<path fill="#4991E1" d="M-1200-2930c0-5,5-10,11-10c5,0,7,5,4,10c-3,6-8,10-11,10C-1198-2920-1200-2924-1200-2930z"/>
	<path fill="#4991E1" d="M-1083-2985c22-30,33-32,33-6c0,11,6,21,12,23c7,3-4,5-25,6l-37,1L-1083-2985z"/>
	<path fill="#4991E1" d="M-1020-3010c0-5,5-10,11-10c5,0,7,5,4,10c-3,6-8,10-11,10C-1018-3000-1020-3004-1020-3010z"/>
	<path fill="#4991E1" d="M-1086-3027c5-9,1-13-13-13c-33,0-51-11-51-32c0-18,2-18,22-4c12,9,36,16,54,16c20,0,31,5,31,15
		c0,8-4,12-9,9s-16,0-25,8C-1089-3019-1092-3019-1086-3027z"/>
	<path fill="#4991E1" d="M-952-3030c-2-6-19-15-38-20c-31-7-29-8,23-8c49,0,57,3,57,19c0,10-4,19-10,19c-5,0-10-6-10-12
		c0-10-3-9-9,1S-949-3021-952-3030z"/>
	<path fill="#4991E1" d="M-1020-3087c-50-7-70-14-70-24c0-8,14-9,43-5C-988-3106-963-3080-1020-3087z"/>
	<path fill="#4991E1" d="M-879-3154l-24-31l28,27c16,15,27,29,24,31C-853-3124-866-3137-879-3154z"/>
	<path fill="#4991E1" d="M-1240-3154c0-30,30-85,48-87c26-3,31-4,38-12c4-4,21-7,38-7c31,1,31,1-8,15c-61,22-91,48-94,83
		C-1222-3125-1240-3119-1240-3154z"/>
	<path fill="#4991E1" d="M-829-3149c0-14-11-35-23-48c-26-28-19-30,11-4c16,14,21,28,18,48C-827-3128-827-3128-829-3149z"/>
	<path fill="#4991E1" d="M-1034-3188c-3-6-1-14,5-17c15-10,25,3,12,16C-1024-3182-1030-3182-1034-3188z"/>
	<path fill="#4991E1" d="M-1304-3217c-6-14-5-15,5-6c7,7,10,15,7,18S-1301-3207-1304-3217z"/>
	<path fill="#4991E1" d="M-905-3230c-3-6,1-7,9-4c18,7,21,14,7,14C-895-3220-902-3224-905-3230z"/>
</g>
</svg>
