<?xml version="1.0" encoding="utf-8"?>
<!-- Generator: Adobe Illustrator 18.1.1, SVG Export Plug-In . SVG Version: 6.00 Build 0)  -->
<svg version="1.1" id="Layer_1" xmlns="http://www.w3.org/2000/svg" xmlns:xlink="http://www.w3.org/1999/xlink" x="0px" y="0px"
	 viewBox="-133 354.7 59 86.3" enable-background="new -133 354.7 59 86.3" xml:space="preserve">
<g transform="translate(0.000000,113.000000) scale(0.100000,-0.100000)">
	<path fill="#4991E1" d="M-1174-2452c-14-20-14-23,0-31c8-5,22-6,30-3s14,1,14-4c0-6,7-10,16-10c14,0,14,3,4,15c-7,8-23,15-37,15
		c-13,0-21,4-18,10c7,11,64,2,83-13c6-5,12-6,12-2s6,3,13-3s22-9,34-6c11,3,24,1,27-4c3-6,16-8,28-4c18,4,20,2,16-16
		c-6-22,17-33,24-12c2,5,20-6,40-25s41-35,47-35c10,0,27-39,23-54c-2-4,4-18,12-30c17-27,11-64-18-100c-18-24-22-25-22-10
		c-2,36-12,72-28,96c-8,13-17,34-19,48c-2,13-12,24-22,26c-13,2-15,0-6-9c6-6,11-22,11-35s9-37,21-53c21-30,27-100,20-213
		c-2-21,2-43,8-49c8-8,11-1,11,26c0,21,5,37,11,37c8,0,8,5-1,15c-18,22-4,66,31,96c24,19,32,36,36,72c4,31,2,47-5,47s-9,11-6,28
		c6,30-27,87-61,106c-11,6-40,23-64,39c-50,30-95,45-166,52c-27,3-56,7-66,10C-1152-2431-1164-2437-1174-2452z"/>
	<path fill="#4991E1" d="M-1226-2475c-14-11-16-15-4-15c13-1,13-2,0-13c-39-32-76-137-49-137c6,0,9-8,5-17c-6-19-9-23,39,51
		c22,33,66,48,141,46c30,0,45,5,60,22l19,23l-21-18c-11-9-23-15-25-12c-3,2-21,5-41,7c-20,1-35,4-33,8c1,3-14,16-36,29
		c-21,14-36,28-33,33C-1196-2456-1204-2458-1226-2475z M-1180-2524c-6-6-15-12-20-12c-6-1-15-2-21-3c-5,0-7-5-4-11c3-5,1-10-4-10
		c-27,0-6,46,24,52C-1178-2502-1166-2510-1180-2524z"/>
	<path fill="#4991E1" d="M-990-2525c-11-13-10-14,4-9c9,3,16,10,16,15C-970-2506-976-2508-990-2525z"/>
	<path fill="#4991E1" d="M-1310-2554"/>
	<path fill="#4991E1" d="M-1117-2681c-26-8-31-14-29-36c2-15,15-35,32-47c15-11,25-15,20-8c-4,6-2,13,3,13c6,1,16,2,21,3
		c6,0,15,7,20,15c7,12,11,12,24,2c23-19,20-31-10-31c-14,0-23-4-19-9c3-5-3-12-12-14c-15-4,55-2,91,2c6,1,1,7-10,15
		c-17,13-16,14,19,11c31-3,37,0,37,16c0,10-4,19-10,19c-5,0-10,8-10,17s-3,13-7,10c-3-4-12,2-20,13C-993-2668-1057-2664-1117-2681z
		 M-973-2716c34-34,24-40-30-15c-51,23-78,26-94,10c-7-7-13-8-17,0c-7,11,30,22,102,30C-1005-2691-988-2702-973-2716z"/>
	<path fill="#4991E1" d="M-1283-2697c-18-17-4-29,31-26l37,3l-37-13l-36-12l17-34c17-31,19-32,35-16c31,32,49,75,35,91
		C-1213-2690-1271-2684-1283-2697z M-1234-2778c-8-9-18-13-22-10c-3,4,3,15,13,25s20,15,22,10S-1225-2769-1234-2778z"/>
	<path fill="#4991E1" d="M-1310-2726"/>
	<path fill="#4991E1" d="M-1175-2790c3-5,15-10,25-10c21,0,46-35,31-44c-5-3-20,3-34,14c-46,36-102,4-63-36c20-19,29-18,23,5
		c-3,13,0,18,12,16c9-2,19-4,24-4c4-1,7-8,7-16c0-19,14-19,34,1c25,24,19,52-14,69S-1184-2775-1175-2790z"/>
	<path fill="#4991E1" d="M-805-2810c-14-15-15-21-5-18c11,2,14-5,12-31c-1-19-7-40-13-47c-7-8-7-14,1-19c15-9,31,43,28,93l-3,44
		L-805-2810z"/>
	<path fill="#4991E1" d="M-830-2859c0-6,5-13,10-16c6-3,10,1,10,9c0,9-4,16-10,16C-825-2850-830-2854-830-2859z"/>
	<path fill="#4991E1" d="M-1227-2910c-3-11-12-20-19-20c-8,0-14-11-14-27c0-26,0-26,21-7c17,15,35,19,84,17c34,0,72-6,83-12
		c17-9,20-7,24,14c3,14,0,25-6,26c-16,1-38,6-61,14c-14,5-16,4-6-3c9-7,10-11,2-17c-7-4-18-1-26,5c-11,9-15,9-15,1c0-6-10-11-22-10
		c-21,0-21,1-4,8c16,6,17,8,4,13c-9,4-21,1-28-5c-10-9-12-8-7,6c4,9,4,17,1,17S-1224-2899-1227-2910z"/>
	<path fill="#4991E1" d="M-1204-2976c-23-22-15-27,33-19c38,6,58,25,27,25c-8,0-21,3-29,6S-1195-2966-1204-2976z"/>
	<path fill="#4991E1" d="M-1279-3042c11-21,22-38,24-38c13,0,3,39-15,60"/>
	<path fill="#4991E1" d="M-1050-3009c0-7-4-9-10-6c-5,3-10-3-10-14c0-13,6-19,19-18c11,0,17,5,15,9c-3,5-11,5-17,1c-7-4-6,1,2,10
		c8,10,11,20,7,24C-1047-3000-1050-3002-1050-3009z"/>
	<path fill="#4991E1" d="M-899-3046c0-11,3-14,6-6c3,7,2,16-1,19C-897-3029-900-3035-899-3046z"/>
	<path fill="#4991E1" d="M-1186-3058c-4-12-11-22-16-22s-6-4-3-10s-1-7-9-4c-9,3-16,1-16-5s3-11,8-11c4,0,20-11,35-25s27-23,27-20
		s10,1,21-6c15-8,19-8,15,0c-4,6-20,18-36,26c-20,11-27,20-23,34c3,12,11,17,19,14c18-7,17,7-2,32C-1180-3036-1181-3036-1186-3058z"
		/>
	<path fill="#4991E1" d="M-850-3086c0-21,5-46,11-54c7-11,8-1,3,35C-844-3043-850-3035-850-3086z"/>
	<path fill="#4991E1" d="M-1242-3141c-5-30,42-94,71-96c30-2,25,9-12,32c-19,12-33,30-35,45C-1223-3125-1238-3113-1242-3141z"/>
	<path fill="#4991E1" d="M-841-3178c-8-10-34-30-59-43c-36-19-60-24-126-24c-59,0-80-3-77-12c3-6,10-10,16-8c7,2,49,6,94,8
		c90,5,157,33,167,70C-819-3158-825-3155-841-3178z"/>
	<path fill="#4991E1" d="M-1290-3205c-13-14-19-25-14-25c8,1,50,50,41,50C-1265-3180-1277-3191-1290-3205z"/>
	<path fill="#4991E1" d="M-1145-3241c-10-15,3-25,16-12c7,7,7,13,1,17C-1134-3233-1142-3235-1145-3241z"/>
</g>
</svg>
