<svg viewBox="0 0 1000 600" version="1.1" xmlns="http://www.w3.org/2000/svg" xmlns:xlink="http://www.w3.org/1999/xlink" id="svg">
  <desc>Created with Snap</desc><defs></defs><g transform="matrix(1,0,0,1,173,28)" class="steve"><path d="M220.37898,253.359207C226.06003299999998,280.282191,235.529931,303.81521,247.739238,322.723003C254.161133,332.668189,244.631218,358.433289,250.860275,366.002747C253.382118,369.067252,254.760274,375.675011,261.767086,381.456645C272.067394,389.955891,292.209313,397.830884,327.000004,399.554596C373.882803,401.877413,410.517865,382.830808,424.865368,355.948395C429.623968,347.032372,433.305851,342.40351,434.290112,332.027557C435.105247,323.434496,431.203901,318.804611,430.862164,309.434723C430.657845,303.832642,432.731264,304.112425,434.290112,295.734161C435.610384,288.638152,436.327445,272.846768,437.407436,267.787338C441.229572,249.881798,441,216.47723,441,196.5C441,99.0217417,392.1696,20,327,20C261.8304,20,218,71.0217417,218,168.5C218,192.327476,215.46970599999997,230.093749,220.37898,253.359207C220.37898,253.359207,220.37898,253.359207,220.37898,253.359207" class="frame"></path><path d="M217.08317999999997,207.302721C219.10790099999997,216.895909,222.479365,230.047423,226.502319,234.704028C233.118034,242.36178,246.349465,246.186742,251.074975,258.59337C255.800486,270.999998,252.020078,293.053248,261.471099,303.582657C270.922121,314.112066,271.867224,292.133248,276.592734,281.566623C281.318245,270.999998,318.840266,268.208338,323.179627,268.20834C327.518988,268.208341,327.518988,271.951649,331.727786,271.951653C335.936584,271.951657,334.099085,268.093751,339.562911,268.093753C345.026738,268.093754,353.533755,266.568334,364.983076,265.555714C371.871129,264.94651,378.292267,263.510681,381.950378,265.555713C391.689002,270.999998,396.452664,283.057808,399.253383,283.057807C402.054101,283.057806,398.730787,263.689507,407.542943,251.928912C412.407705,245.436462,419.553103,243.312417,425.535528,236.684212C430.389826,231.305913,434.538725,221.00921,435.600633,218.596145C436.935742,215.562263,439.005971,204.503555,440.559809,195.421405C438.28018,188.566883,434.567142,176.487896,434.567141,170.53036C434.567139,161.933921,424.537968,141.159201,424.537964,124.68269600000002C424.537961,108.20619099999999,412.359677,99.60975539999998,403.763241,92.4460573C395.166806,85.2823593,403.091648,69.1220654,392.346099,53.36193109999999C381.600549,37.60179679999999,364.925366,36.734318299999984,358.47804,42.465275599999984C352.030713,48.19623280000002,351.969177,74.8586426,320.423695,74.85862029999998C288.878212,74.8585979,276.434116,43.17045039999999,264.255829,47.07410749999997C252.077542,50.97776470000002,252.64280199999996,57.223612,236.10753499999998,80.23698999999999C219.572267,103.25036799999998,231.80931799999996,137.26953300000002,231.80931599999997,150.091436C231.80931499999997,162.913338,230.23386300000004,169.097628,225.361989,185.909923C222.48827,195.826806,219.253335,203.047715,217.08317999999997,207.302721C217.08317999999997,207.302721,217.08317999999997,207.302721,217.08317999999997,207.302721M443.760413,186.211047C444.112215,187.781912,444.468781,189.86465,444.695512,192.478599C445.896309,206.322411,446.488968,231.540914,444.695507,249.837596C443.572395,261.295451,443.694939,286.201051,430.021157,311.522984C411.215786,346.347902,372.987671,381.485231,330.116219,379.198893C304.194789,377.816502,284.118297,369.040542,269.507525,356.701771C242.38284,333.795023,232.59841700000004,300.532797,228.67051700000002,293.061836C222.626845,281.566624,214.508132,267.615538,214.508132,248.182504C214.508132,228.74947,210.57964100000004,215.983457,212.495927,212.10175C213.34119999999996,210.38953,213.020893,205.481527,213.576053,202.291632C212.517221,194.557216,210.46249,183.790798,206.699997,176.683864C200.25266899999997,164.505575,194.723392,159.61152,194.723392,159.61152C194.723392,159.61152,198.17071999999996,145.865969,198.17071999999996,137.269537C198.17071899999996,128.67310399999997,196.00761999999997,117.17760699999997,196.00761899999998,102.850209C196.00761699999998,88.52281049999999,216.622835,60.36332909999999,230.23386300000004,43.17045209999998C243.84488999999996,25.977575,269.220048,0.48347439499997336,318.520838,-0.25826244600000337C367.821628,-0.9999992859999907,358.478039,-1.00000110000002,385.867989,15.788897299999974C399.579375,24.193405299999995,419.897293,40.655366500000014,429.874362,54.361929599999996C439.827549,68.03568380000002,439.450457,78.95554859999999,444.322082,86.1106623C454.077021,100.43805800000001,454.488377,118.84818200000001,454.488376,130.83619999999996C454.488375,142.82421899999997,455.786595,159.49099,455.786595,159.49099C455.786595,159.49099,452.476383,162.65029,448.178166,169.097621C446.129352,172.170844,444.697725,179.442123,443.760413,186.211047C443.760413,186.211047,443.760413,186.211047,443.760413,186.211047M332.28138,298.581432C357.014618,297.340851,375.026145,281.180831,383.301554,286.551583C391.576964,291.922336,374.141668,331.444234,363.292798,339.064913C352.443929,346.685592,348.282276,341.694215,336.91329,341.694214C325.544304,341.694214,325.176847,348.565151,314.802019,346.464062C304.42719,344.362974,289.11075,336.230003,284.911189,321.468396C280.711628,306.706789,281.652864,298.055295,289.512006,295.584527C297.371147,293.113759,307.548142,299.822012,332.28138,298.581432C332.28138,298.581432,332.28138,298.581432,332.28138,298.581432" class="screen"></path><path d="M242.522047,377.112074C243.159915,375.950357,242.593741,370.718519,242.951613,365.223001C243.322155,359.532913,244.61127,353.560143,244.961134,351.52992C245.60186,347.81187,248.76338,345.828552,248.76338,345.828552C248.76338,345.828552,252.422899,378.864332,310.007003,384.641099C347.110327,388.363259,370.019904,385.972226,403.913016,361.186772C437.806128,336.401318,431.313139,314.14398,431.313139,314.14398C431.313139,314.14398,436.369866,314.527894,438.931334,318.864138C441.01838,322.397246,443.787312,325.440387,444.808745,330.518531C445.267115,332.797358,449.53076,334.018917,452.326994,345.828552C452.823226,347.92434,472.050727,349.146502,493.568297,356.309374C505.309249,360.217758,515.363856,366.503689,535.351142,374.88876C551.285491,381.573542,578.324777,396.227893,611.614783,407.65265C662.16378,425.000498,674.07495,419.362068,694.62229,445.537736C701.204781,453.923303,713.441912,487.630431,716.958483,518.136412C720.221941,546.446659,721.003607,571.999993,721.003607,571.999993C721.003607,571.999993,0.9401229929999886,571.999993,0.9401229929999886,571.999993C0.9401229929999886,571.999993,8.859419070000001,537.821084,37.751444100000015,502.126046C50.85156410000002,485.941328,97.44832460000003,458.422997,121.19512000000003,443.323662C128.89483,438.427823,124.00060100000002,444.584092,153.21975600000002,425.431786C182.43891000000002,406.279481,221.184102,387.974344,221.691619,387.456132C226.690847,382.351556,234.116687,381.523595,234.116687,381.523595C234.116687,381.523595,240.415069,380.949413,242.522047,377.112074C242.522047,377.112074,242.522047,377.112074,242.522047,377.112074" class="button"></path><path d="M311.78382,193.559936C311.926668,194.85361799999998,312,196.168245,312,197.5C312,217.106109,296.106109,233,276.5,233C256.893891,233,241,217.106109,241,197.5C241,177.893891,256.893891,162,276.5,162C293.716203,162,308.070038,174.25525,311.313579,190.51782100000003C314.251126,188.65182400000003,321.983515,184.259434,330.074187,183.976901C339.072311,183.66268000000002,346.838402,188.49044100000003,348.648794,189.709231C351.817485,173.35150799999997,366.216318,161,383.5,161C403.106109,161,419,176.893891,419,196.5C419,216.106109,403.106109,232,383.5,232C363.893891,232,348,216.106109,348,196.5C348,195.198305,348.070059,193.91297399999996,348.206613,192.64757099999997C345.738241,191.02045899999996,338.731144,187.00995899999998,330.02244,187.314073C321.872736,187.59866699999998,314.824461,191.571255,311.78382,193.559936C311.78382,193.559936,311.78382,193.559936,311.78382,193.559936M276.5,231C295.001539,231,310,216.00153899999998,310,197.5C310,178.99846100000002,295.001539,164,276.5,164C257.998461,164,243,178.99846100000002,243,197.5C243,216.00153899999998,257.998461,231,276.5,231C276.5,231,276.5,231,276.5,231M383.5,230C402.001539,230,417,215.00153899999998,417,196.5C417,177.99846100000002,402.001539,163,383.5,163C364.998461,163,350,177.99846100000002,350,196.5C350,215.00153899999998,364.998461,230,383.5,230C383.5,230,383.5,230,383.5,230" class="button-mark"></path></g></svg>